<svg width="18" height="18" viewBox="0 0 18 18" fill="none" xmlns="http://www.w3.org/2000/svg">
<g clip-path="url(#clip0_34_254)">
<path d="M17.9998 9.05527C17.9998 4.05352 13.9701 -0.000976562 8.99981 -0.000976562C4.02731 0.000148438 -0.00244141 4.05352 -0.00244141 9.0564C-0.00244141 13.5755 3.28931 17.3218 7.59131 18.0013V11.6731H5.30756V9.0564H7.59356V7.05952C7.59356 4.7904 8.93793 3.53715 10.9933 3.53715C11.9788 3.53715 13.0082 3.71377 13.0082 3.71377V5.94127H11.8731C10.7559 5.94127 10.4072 6.6399 10.4072 7.35652V9.05527H12.9024L12.5042 11.672H10.4061V18.0001C14.7081 17.3206 17.9998 13.5744 17.9998 9.05527Z" fill="white"/>
</g>
<defs>
<clipPath id="clip0_34_254">
<rect width="18" height="18" fill="white"/>
</clipPath>
</defs>
</svg>
