<svg width="22" height="23" viewBox="0 0 22 23" fill="none" xmlns="http://www.w3.org/2000/svg">
<g clip-path="url(#clip0_34_12)">
<path d="M21.9998 11.5704C21.9998 5.17925 17.0746 -0.00149536 10.9998 -0.00149536C4.92232 -5.78612e-05 -0.00292969 5.17926 -0.00292969 11.5718C-0.00292969 17.3463 4.02032 22.1331 9.27832 23.0014V14.9154H6.48707V11.5718H9.28107V9.02026C9.28107 6.12082 10.9242 4.51944 13.4363 4.51944C14.6408 4.51944 15.8989 4.74513 15.8989 4.74513V7.59138H14.5116C13.1462 7.59138 12.7199 8.48407 12.7199 9.39975V11.5704H15.7697L15.2829 14.914H12.7186V22.9999C17.9766 22.1317 21.9998 17.3448 21.9998 11.5704Z" fill="#1877F2"/>
</g>
<defs>
<clipPath id="clip0_34_12">
<rect width="22" height="23" fill="white"/>
</clipPath>
</defs>
</svg>
