<svg width="16" height="16" viewBox="0 0 16 16" fill="none" xmlns="http://www.w3.org/2000/svg">
<path d="M15 5C15.5312 5 16 5.46875 16 6V15C16 15.5625 15.5312 16 15 16H5C4.4375 16 4 15.5625 4 15L4 1C4 0.46875 4.4375 -5.96046e-08 5 -5.96046e-08L12.5625 -5.96046e-08C12.8125 0.0312499 13.125 0.15625 13.2812 0.3125L14.6875 1.71875C14.8437 1.875 14.9687 2.1875 15 2.4375V5ZM9 13.5V12.5C9 12.25 8.75 12 8.5 12H7.5C7.21875 12 7 12.25 7 12.5V13.5C7 13.7812 7.21875 14 7.5 14H8.5C8.75 14 9 13.7812 9 13.5ZM9 9.5V8.5C9 8.25 8.75 8 8.5 8H7.5C7.21875 8 7 8.25 7 8.5V9.5C7 9.78125 7.21875 10 7.5 10H8.5C8.75 10 9 9.78125 9 9.5ZM13 13.5V12.5C13 12.25 12.75 12 12.5 12H11.5C11.2187 12 11 12.25 11 12.5V13.5C11 13.7812 11.2187 14 11.5 14H12.5C12.75 14 13 13.7812 13 13.5ZM13 9.5V8.5C13 8.25 12.75 8 12.5 8H11.5C11.2187 8 11 8.25 11 8.5V9.5C11 9.78125 11.2187 10 11.5 10H12.5C12.75 10 13 9.78125 13 9.5ZM13 6V4H11.5C11.2187 4 11 3.78125 11 3.5V2H6V6L13 6ZM2 4C2.53125 4 3 4.46875 3 5L3 15C3 15.5625 2.53125 16 2 16H1C0.4375 16 0 15.5625 0 15L0 5C0 4.46875 0.4375 4 1 4H2Z" fill="#33AB90"/>
</svg>
