<svg width="28" height="28" viewBox="0 0 28 28" fill="none" xmlns="http://www.w3.org/2000/svg">
<path d="M14.3354 28C6.78917 28 0.670898 21.8817 0.670897 14.3355C0.670895 6.78932 6.78916 0.671052 14.3354 0.671052C21.8816 0.671051 27.9998 6.78932 27.9998 14.3355C27.9998 21.8817 21.8821 28 14.3354 28ZM12.874 21.0419L18.6765 15.2393C18.9169 14.9991 19.0517 14.6733 19.0517 14.3336C19.0517 13.9939 18.9169 13.6679 18.6765 13.4278L12.8784 7.62964C12.5547 7.30594 12.0829 7.17974 11.6408 7.29813C11.1988 7.4167 10.8533 7.76212 10.735 8.20418C10.6166 8.64644 10.7432 9.11809 11.0669 9.44174L15.9587 14.3361L11.0625 19.2309C10.7434 19.5553 10.6202 20.0249 10.7392 20.4642C10.8583 20.9036 11.2014 21.2468 11.6409 21.3658C12.0803 21.4847 12.5496 21.3617 12.8742 21.0424L12.874 21.0419Z" fill="#202020"/>
</svg>
