<svg width="16" height="16" viewBox="0 0 16 16" fill="none" xmlns="http://www.w3.org/2000/svg">
<g clip-path="url(#clip0_337_1084)">
<path d="M11.333 3.99967H14.6663V5.33301H13.333V13.9997C13.333 14.1765 13.2628 14.3461 13.1377 14.4711C13.0127 14.5961 12.8432 14.6663 12.6663 14.6663H3.33301C3.1562 14.6663 2.98663 14.5961 2.8616 14.4711C2.73658 14.3461 2.66634 14.1765 2.66634 13.9997V5.33301H1.33301V3.99967H4.66634V1.99967C4.66634 1.82286 4.73658 1.65329 4.8616 1.52827C4.98663 1.40325 5.1562 1.33301 5.33301 1.33301H10.6663C10.8432 1.33301 11.0127 1.40325 11.1377 1.52827C11.2628 1.65329 11.333 1.82286 11.333 1.99967V3.99967ZM11.9997 5.33301H3.99967V13.333H11.9997V5.33301ZM5.99967 7.33301H7.33301V11.333H5.99967V7.33301ZM8.66634 7.33301H9.99967V11.333H8.66634V7.33301ZM5.99967 2.66634V3.99967H9.99967V2.66634H5.99967Z" fill="#E10F21"/>
</g>
<defs>
<clipPath id="clip0_337_1084">
<rect width="16" height="16" fill="white"/>
</clipPath>
</defs>
</svg>
