<svg width="23" height="23" viewBox="0 0 23 23" fill="none" xmlns="http://www.w3.org/2000/svg">
<path d="M17.2008 15.6071H9.9065C8.77293 15.6071 7.78722 14.835 7.51615 13.7425L5.77472 6.76857C5.66793 6.33321 5.93079 5.88143 6.37436 5.77464C6.44007 5.75821 6.50579 5.75 6.5715 5.75H20.5358C20.9876 5.75 21.3572 6.11964 21.3572 6.57143C21.3572 6.63714 21.349 6.70286 21.3326 6.76857L19.5912 13.7343C19.3201 14.835 18.3344 15.6071 17.2008 15.6071ZM7.62293 7.39286L9.10972 13.34C9.20008 13.7096 9.52865 13.9643 9.9065 13.9643H17.2008C17.5787 13.9643 17.9072 13.7096 17.9976 13.34L19.4844 7.39286H7.62293Z" fill="white"/>
<path d="M6.57164 7.39293C6.19378 7.39293 5.86521 7.13828 5.77485 6.76864L5.10949 4.10721H2.46449C2.01271 4.10721 1.64307 3.73757 1.64307 3.28578C1.64307 2.834 2.01271 2.46436 2.46449 2.46436H5.75021C6.12807 2.46436 6.45664 2.719 6.54699 3.08864L7.36842 6.37436C7.47521 6.80971 7.21235 7.2615 6.76878 7.36828C6.70307 7.38471 6.63735 7.39293 6.57164 7.39293Z" fill="white"/>
<path d="M9.03592 20.5357C8.13235 20.5357 7.39307 19.7964 7.39307 18.8929C7.39307 17.9893 8.13235 17.25 9.03592 17.25C9.9395 17.25 10.6788 17.9893 10.6788 18.8929C10.6788 19.7964 9.9395 20.5357 9.03592 20.5357Z" fill="white"/>
<path d="M18.0716 20.5357C17.168 20.5357 16.4287 19.7964 16.4287 18.8929C16.4287 17.9893 17.168 17.25 18.0716 17.25C18.9751 17.25 19.7144 17.9893 19.7144 18.8929C19.7144 19.7964 18.9751 20.5357 18.0716 20.5357Z" fill="white"/>
</svg>
