<svg width="28" height="28" viewBox="0 0 28 28" fill="none" xmlns="http://www.w3.org/2000/svg">
<path d="M13.6646 28C21.2108 28 27.3291 21.8817 27.3291 14.3355C27.3291 6.78932 21.2108 0.671052 13.6646 0.671052C6.11843 0.671051 0.000157454 6.78932 0.000156401 14.3355C0.000155349 21.8817 6.11794 28 13.6646 28ZM15.126 21.0419L9.32348 15.2393C9.08309 14.9991 8.94831 14.6733 8.94831 14.3336C8.94831 13.9939 9.08309 13.6679 9.32348 13.4278L15.1216 7.62964C15.4453 7.30594 15.9171 7.17974 16.3592 7.29813C16.8012 7.4167 17.1467 7.76212 17.265 8.20418C17.3834 8.64644 17.2568 9.11809 16.9331 9.44174L12.0413 14.3361L16.9375 19.2309C17.2566 19.5553 17.3798 20.0249 17.2608 20.4642C17.1417 20.9036 16.7986 21.2468 16.3591 21.3658C15.9197 21.4847 15.4504 21.3617 15.1258 21.0424L15.126 21.0419Z" fill="#202020"/>
</svg>
