<svg width="80" height="75" viewBox="0 0 80 75" fill="none" xmlns="http://www.w3.org/2000/svg">
<g clip-path="url(#clip0_337_901)">
<path d="M45.5377 0.0118775C48.2329 -0.121237 50.8172 0.912508 53.2907 3.11311L71.2295 19.2815L73.1529 17.2148L80.0005 23.387L69.5667 34.861L62.7166 28.6433L64.4192 26.7713L46.3847 10.5153C44.2971 8.66265 41.7069 7.81257 38.6123 7.96506C36.5611 8.06616 34.5885 8.54638 32.6973 9.40404C36.7252 3.3667 41.0054 0.235982 45.5377 0.0118775Z" fill="#33AB90"/>
<path d="M58.4524 6.84906L66.6982 14.2812L68.139 12.6968L59.8932 5.26459L58.4524 6.84906Z" fill="#33AB90"/>
<path d="M24.9449 42.4863L3.03223 65.5253L13.5439 75L34.436 51.009L24.9449 42.4863Z" fill="#33AB90"/>
<path d="M46.159 37.5384L58.9715 22.8217L50.6777 15.3462L37.2441 29.5339L46.159 37.5384Z" fill="#33AB90"/>
<path d="M70.3459 63.3871C70.5989 62.3045 70.6988 61.2304 70.6454 60.1629C70.4889 57.0229 69.2534 54.4086 66.9382 52.3226C64.6238 50.2366 61.8745 49.2719 58.6885 49.4295C57.6172 49.4826 56.5518 49.673 55.4932 49.9999L44.1632 39.8317L44.2132 39.7745L35.2061 31.6865L35.1917 31.7016L23.3295 21.0095C23.5538 19.9598 23.6384 18.9007 23.5859 17.8333C23.426 14.6318 22.1888 11.988 19.8744 9.90117C17.5601 7.81515 14.8251 6.84964 11.6713 7.00551C10.5687 7.06027 9.48973 7.26668 8.43281 7.6239L17.5947 15.8821L9.47704 24.8572L0.313413 16.5999C0.0612415 17.6825 -0.0394577 18.7575 0.0138536 19.8241C0.170403 22.9649 1.40587 25.5784 3.72111 27.6644C6.03549 29.7504 8.77045 30.7159 11.9243 30.5592C13.0887 30.5019 14.2285 30.2778 15.3447 29.8852L19.321 33.4692L19.3295 33.4599L45.2202 56.7078L45.1719 56.7609L47.4119 58.7888C47.1318 59.9337 47.0192 61.0703 47.0751 62.1984C47.2333 65.3695 48.4628 67.999 50.7612 70.0858C53.0612 72.1727 55.8029 73.1374 58.988 72.9798C60.0602 72.9268 61.1247 72.7203 62.1808 72.3631L53.0189 64.1049L61.1823 55.1273L70.3459 63.3871Z" fill="#33AB90"/>
</g>
<defs>
<clipPath id="clip0_337_901">
<rect width="80" height="75" fill="white"/>
</clipPath>
</defs>
</svg>
