<svg width="22" height="23" viewBox="0 0 22 23" fill="none" xmlns="http://www.w3.org/2000/svg">
<g clip-path="url(#clip0_34_14)">
<path d="M11 0C17.05 0 22 5.175 22 11.5C22 17.825 17.05 23 11 23C4.95 23 0 17.825 0 11.5C0 5.175 4.95 0 11 0Z" fill="url(#paint0_linear_34_14)"/>
<path d="M14.2313 4.3125H7.7C5.70625 4.3125 4.125 6.0375 4.125 8.19375V14.8063C4.125 16.8906 5.70625 18.6156 7.76875 18.6875H14.3C16.2937 18.6875 17.9438 16.9625 17.9438 14.8063V8.19375C17.875 6.0375 16.2938 4.3125 14.2313 4.3125ZM16.6375 14.7344C16.6375 16.1719 15.5375 17.3938 14.0938 17.3938H7.8375C6.4625 17.3938 5.29375 16.1719 5.3625 14.7344V8.26562C5.3625 6.82812 6.4625 5.60625 7.8375 5.60625H14.0938C15.4688 5.60625 16.6375 6.82812 16.6375 8.26562V14.7344Z" fill="white"/>
<path d="M11 7.83438C9.07501 7.76251 7.42501 9.41563 7.42501 11.4281C7.35626 13.4406 8.93751 15.1656 10.8625 15.1656C12.7875 15.1656 14.4375 13.5844 14.4375 11.5719V11.5C14.5063 9.48751 12.925 7.83438 11 7.83438ZM11 13.8719C9.76251 13.8719 8.73126 12.8656 8.66251 11.5719C8.66251 10.2781 9.62501 9.20001 10.8625 9.12813C12.1 9.05626 13.1313 10.1344 13.2 11.4281V11.5C13.2688 12.7938 12.2375 13.8719 11 13.8719Z" fill="white"/>
<path d="M14.6439 6.75626C15.0564 6.75626 15.4002 7.11563 15.4002 7.61876C15.4002 8.12188 15.0564 8.48126 14.6439 8.48126C14.2314 8.48126 13.8877 8.12188 13.8877 7.61876C13.8877 7.11563 14.2314 6.75626 14.6439 6.75626Z" fill="white"/>
</g>
<defs>
<linearGradient id="paint0_linear_34_14" x1="5.49813" y1="21.4616" x2="17.2497" y2="1.99225" gradientUnits="userSpaceOnUse">
<stop stop-color="#FEC053"/>
<stop offset="0.327" stop-color="#F2203E"/>
<stop offset="0.648" stop-color="#B729A8"/>
<stop offset="1" stop-color="#5342D6"/>
</linearGradient>
<clipPath id="clip0_34_14">
<rect width="22" height="23" fill="white"/>
</clipPath>
</defs>
</svg>
