<svg width="19" height="19" viewBox="0 0 19 19" fill="none" xmlns="http://www.w3.org/2000/svg">
<g clip-path="url(#clip0_34_248)">
<path d="M9.5 0C14.7381 0 19 3.458 19 7.70925C19 9.41094 18.3409 10.9428 16.9634 12.4521C14.9708 14.7464 10.5141 17.5406 9.5 17.9681C8.51437 18.3837 8.62838 17.7341 8.6735 17.4776L8.67706 17.4563L8.81244 16.6428C8.8445 16.4006 8.87775 16.0241 8.78156 15.7843C8.67469 15.5194 8.25431 15.3817 7.94556 15.3152C3.37962 14.7131 0 11.5199 0 7.70925C0 3.458 4.26313 0 9.5 0ZM5.96362 9.12713H4.15269V5.84013C4.15269 5.7912 4.13333 5.74426 4.09885 5.70955C4.06436 5.67485 4.01755 5.65519 3.96863 5.65488H3.30125C3.27692 5.65488 3.25283 5.65967 3.23036 5.66898C3.20788 5.67829 3.18746 5.69193 3.17026 5.70913C3.15306 5.72634 3.13941 5.74676 3.1301 5.76923C3.12079 5.79171 3.116 5.8158 3.116 5.84013V9.97975C3.116 10.0284 3.13619 10.0748 3.16825 10.1068V10.108L3.17063 10.1104L3.173 10.1128C3.20744 10.1459 3.25347 10.1642 3.30125 10.1638H5.96362C6.06575 10.1638 6.14769 10.0807 6.14769 9.97856V9.31356C6.14784 9.28924 6.14321 9.26512 6.13404 9.24258C6.12488 9.22005 6.11136 9.19954 6.09427 9.18222C6.07718 9.16491 6.05684 9.15113 6.03443 9.14168C6.01201 9.13223 5.98795 9.12728 5.96362 9.12713ZM6.90294 5.65488C6.85381 5.65488 6.80669 5.67439 6.77195 5.70913C6.73721 5.74388 6.71769 5.79099 6.71769 5.84013V9.97975C6.71769 10.0819 6.80081 10.1638 6.90294 10.1638H7.57031C7.67244 10.1638 7.75438 10.0807 7.75438 9.97975V5.84013C7.75438 5.7912 7.73502 5.74426 7.70054 5.70955C7.66605 5.67485 7.61924 5.65519 7.57031 5.65488H6.90294ZM11.4902 5.65488C11.4411 5.65488 11.394 5.67439 11.3593 5.70913C11.3245 5.74388 11.305 5.79099 11.305 5.84013V8.29825L9.40856 5.738C9.40377 5.73177 9.39861 5.72582 9.39312 5.72019C9.38937 5.71603 9.38541 5.71088 9.38125 5.70713L9.37769 5.70356C9.37362 5.69967 9.36925 5.6961 9.36462 5.69288L9.3575 5.68813L9.35394 5.68575C9.35208 5.68437 9.35009 5.68317 9.348 5.68219L9.3385 5.67625H9.33613L9.33256 5.67388L9.32069 5.66913L9.31594 5.66675C9.31205 5.66534 9.30808 5.66415 9.30406 5.66319H9.30169L9.29813 5.662L9.28744 5.65963H9.28031L9.27675 5.65844H9.272L9.26963 5.65725H8.588C8.53907 5.65725 8.49213 5.6766 8.45743 5.71109C8.42272 5.74557 8.40306 5.79239 8.40275 5.84131V9.98094C8.40275 10.0831 8.48588 10.165 8.588 10.165H9.253C9.35631 10.165 9.43944 10.0819 9.43944 9.98094V7.52281L11.3394 10.0878C11.3521 10.1055 11.3678 10.1208 11.3858 10.1329L11.3869 10.1341L11.3988 10.1413L11.4036 10.1436C11.4066 10.1454 11.4098 10.147 11.4131 10.1484L11.4214 10.1519L11.4273 10.1543C11.4312 10.1556 11.4352 10.1568 11.4392 10.1579H11.4427C11.4582 10.1623 11.4742 10.1647 11.4902 10.165H12.1553C12.2586 10.165 12.3417 10.0819 12.3417 9.98094V5.84013C12.3417 5.79099 12.3222 5.74388 12.2874 5.70913C12.2527 5.67439 12.2056 5.65488 12.1564 5.65488H11.4902ZM16.0206 6.50631V5.84131C16.0207 5.81699 16.0161 5.79287 16.0069 5.77033C15.9978 5.74779 15.9842 5.72728 15.9671 5.70997C15.9501 5.69266 15.9297 5.67888 15.9073 5.66943C15.8849 5.65998 15.8608 5.65503 15.8365 5.65488H13.1741C13.1262 5.65493 13.0802 5.67368 13.0459 5.70713H13.0447L13.0435 5.7095L13.0411 5.71306C13.008 5.74709 12.9892 5.79262 12.9889 5.84013V9.97975C12.9889 10.0284 13.0091 10.0748 13.0411 10.1068L13.0435 10.1104L13.0459 10.1128C13.0804 10.1458 13.1264 10.1641 13.1741 10.1638H15.8365C15.9386 10.1638 16.0206 10.0807 16.0206 9.97856V9.31356C16.0207 9.28924 16.0161 9.26512 16.0069 9.24258C15.9978 9.22005 15.9842 9.19954 15.9671 9.18222C15.9501 9.16491 15.9297 9.15113 15.9073 9.14168C15.8849 9.13223 15.8608 9.12728 15.8365 9.12713H14.0244V8.42769H15.8353C15.9374 8.42769 16.0194 8.34456 16.0194 8.24244V7.57744C16.0195 7.55311 16.0149 7.52899 16.0057 7.50645C15.9966 7.48392 15.983 7.46341 15.966 7.4461C15.9489 7.42879 15.9285 7.41501 15.9061 7.40556C15.8837 7.3961 15.8596 7.39116 15.8353 7.391H14.0244V6.69156H15.8353C15.9374 6.69156 16.0194 6.60844 16.0194 6.50631H16.0206Z" fill="white"/>
</g>
<defs>
<clipPath id="clip0_34_248">
<rect width="19" height="19" fill="white"/>
</clipPath>
</defs>
</svg>
