<svg width="22" height="24" viewBox="0 0 22 24" fill="none" xmlns="http://www.w3.org/2000/svg">
<g clip-path="url(#clip0_34_32)">
<path d="M11 23.9504C17.0751 23.9504 22 18.8017 22 12.4504C22 6.09916 17.0751 0.950439 11 0.950439C4.92487 0.950439 0 6.09916 0 12.4504C0 18.8017 4.92487 23.9504 11 23.9504Z" fill="#31C139"/>
<path d="M10.9998 6.49827C12.7487 6.51624 14.36 6.99241 15.7608 8.12444C16.7061 8.88362 17.4022 9.84046 17.7158 11.0623C18.0811 12.4953 17.819 13.816 17.0369 15.0379C16.4783 15.9049 15.7393 16.5877 14.9787 17.2481C13.7541 18.3082 12.4393 19.2291 11.0385 20.0153C10.9139 20.0826 10.785 20.1455 10.6518 20.186C10.4326 20.2489 10.278 20.1006 10.3166 19.867C10.3338 19.7547 10.3897 19.6469 10.4155 19.5346C10.4842 19.1887 10.5658 18.8428 10.6045 18.4879C10.6346 18.2184 10.4971 18.1016 10.2393 18.0791C8.64944 17.9264 7.20569 17.3739 5.98538 16.2823C4.92835 15.3389 4.27093 14.153 4.15061 12.693C4.04749 11.4262 4.40843 10.2897 5.14319 9.28342C6.14436 7.9178 7.49788 7.13616 9.07054 6.73186C9.69788 6.56565 10.3424 6.48928 10.9998 6.49827ZM10.8881 11.9473C10.9354 12.0102 10.9612 12.0371 10.9783 12.0641C11.3951 12.6571 11.8119 13.25 12.233 13.843C12.3576 14.0182 12.5166 14.0856 12.6756 14.0317C12.8346 13.9778 12.9248 13.843 12.9248 13.6274C12.9248 12.7065 12.9248 11.7856 12.9205 10.8602C12.9205 10.6311 12.7616 10.4649 12.5596 10.4649C12.3576 10.4649 12.203 10.6401 12.203 10.8781C12.203 11.3813 12.203 11.8844 12.1987 12.392C12.1987 12.4369 12.1901 12.4774 12.1815 12.5537C12.1342 12.4953 12.1084 12.4594 12.0869 12.428C11.6787 11.8485 11.2748 11.269 10.8666 10.694C10.7248 10.4963 10.5916 10.4334 10.4198 10.4873C10.2436 10.5457 10.1662 10.685 10.1662 10.9365C10.1619 11.8215 10.1619 12.7065 10.1619 13.5914C10.1619 13.8699 10.3037 14.0362 10.5229 14.0406C10.7463 14.0451 10.8881 13.8789 10.8924 13.6049C10.8967 13.268 10.8881 12.9266 10.8881 12.5897C10.8881 12.392 10.8881 12.1899 10.8881 11.9473ZM14.1323 11.224C14.4459 11.224 14.7467 11.224 15.0518 11.224C15.3053 11.224 15.4686 11.0758 15.4729 10.8557C15.4772 10.6221 15.3182 10.4604 15.0604 10.4604C14.6479 10.4559 14.2397 10.4559 13.8272 10.4604C13.535 10.4649 13.4018 10.6041 13.3975 10.9186C13.3932 11.1881 13.3975 11.4576 13.3975 11.7317C13.3975 12.3606 13.3932 12.985 13.3932 13.6139C13.3932 13.9059 13.5264 14.0451 13.8014 14.0451C14.2354 14.0451 14.6694 14.0451 15.1076 14.0451C15.2838 14.0451 15.3998 13.9553 15.46 13.7936C15.5502 13.5555 15.3612 13.2949 15.0991 13.2905C14.7768 13.286 14.4545 13.2905 14.128 13.2905C14.128 13.0614 14.128 12.8592 14.128 12.6391C14.4545 12.6391 14.7725 12.6391 15.0862 12.6391C15.3096 12.6391 15.4643 12.4864 15.4729 12.2752C15.4815 12.0551 15.3268 11.8934 15.0905 11.8844C14.9916 11.8799 14.8928 11.8844 14.7897 11.8844C14.5705 11.8844 14.3471 11.8844 14.128 11.8844C14.1323 11.6463 14.1323 11.4487 14.1323 11.224ZM7.26155 13.2905C7.26155 13.1961 7.26155 13.1242 7.26155 13.0524C7.26155 12.3336 7.26155 11.6149 7.25725 10.8961C7.25725 10.6311 7.10686 10.4649 6.89632 10.4649C6.68577 10.4649 6.53968 10.6356 6.53968 10.9006C6.53538 11.8035 6.53538 12.7065 6.53538 13.6094C6.53538 13.8969 6.67288 14.0362 6.94788 14.0406C7.36468 14.0406 7.78147 14.0406 8.19827 14.0406C8.45179 14.0406 8.61077 13.8969 8.61507 13.6723C8.61936 13.4477 8.44319 13.2949 8.18538 13.2905C7.8889 13.2905 7.59241 13.2905 7.26155 13.2905ZM8.93733 12.2438H8.93304C8.93304 12.6975 8.93304 13.1512 8.93304 13.6094C8.93304 13.8699 9.07913 14.0362 9.29397 14.0406C9.50882 14.0406 9.65491 13.8789 9.65491 13.6184C9.65491 12.702 9.65061 11.7901 9.64632 10.8737C9.64632 10.7973 9.62913 10.7119 9.59046 10.649C9.50022 10.4963 9.35843 10.4469 9.19515 10.4918C9.03616 10.5367 8.94163 10.676 8.93733 10.8871C8.93733 11.3364 8.93733 11.7901 8.93733 12.2438Z" fill="white"/>
</g>
<defs>
<clipPath id="clip0_34_32">
<rect width="22" height="23" fill="white" transform="translate(0 0.950439)"/>
</clipPath>
</defs>
</svg>
