<svg width="16" height="15" viewBox="0 0 16 15" fill="none" xmlns="http://www.w3.org/2000/svg">
<path d="M7.875 0.75C9.76172 0.75 11.3203 2.30859 11.3203 4.19531C11.3203 5.75391 9.05078 8.54297 8.20312 9.58203C8.01172 9.77344 7.71094 9.77344 7.51953 9.58203C6.67188 8.54297 4.42969 5.75391 4.42969 4.19531C4.42969 2.30859 5.96094 0.75 7.875 0.75ZM7.875 5.34375C8.50391 5.34375 9.02344 4.85156 9.02344 4.19531C9.02344 3.56641 8.50391 3.04688 7.875 3.04688C7.21875 3.04688 6.72656 3.56641 6.72656 4.19531C6.72656 4.85156 7.21875 5.34375 7.875 5.34375ZM0.546875 6.65625L3.77344 5.37109C3.91016 5.78125 4.12891 6.19141 4.375 6.62891V13L0.574219 14.7227C0.300781 14.8594 0 14.6406 0 14.3125V7.47656C0 7.14844 0.246094 6.79297 0.546875 6.65625ZM7.875 10.5938C8.25781 10.5938 8.61328 10.4297 8.85938 10.1289C9.40625 9.5 9.98047 8.78906 10.5 8.02344V14.75L5.25 13V8.02344C5.74219 8.78906 6.31641 9.5 6.86328 10.1289C7.10938 10.4297 7.46484 10.5938 7.875 10.5938ZM15.1484 5.17969C15.4219 5.04297 15.75 5.26172 15.75 5.58984V12.4258C15.75 12.7539 15.4766 13.1094 15.1758 13.2461L11.375 14.75V6.875L15.1484 5.17969Z" fill="white"/>
</svg>
