<svg width="16" height="16" viewBox="0 0 16 16" fill="none" xmlns="http://www.w3.org/2000/svg">
<path d="M15.5312 11.3125C15.7812 11.4375 15.9687 11.75 15.9687 12.0312C15.9687 12.0625 15.9687 12.125 15.9687 12.1875L15.2187 15.4375C15.1562 15.75 14.8125 16 14.5 16C6.46875 16 0 9.53125 0 1.5C0 1.1875 0.25 0.84375 0.5625 0.78125L3.8125 0.0312499C3.875 0.0312499 3.9375 0.0312499 3.96875 0.0312499C4.25 0.0312499 4.5625 0.21875 4.6875 0.46875L6.1875 3.96875C6.21875 4.0625 6.25 4.1875 6.25 4.25C6.25 4.46875 6.125 4.71875 5.96875 4.84375L4.0625 6.40625C5.03125 8.46875 7.53125 10.9375 9.59375 11.9375L11.1562 10.0312C11.2812 9.875 11.5312 9.75 11.7187 9.75C11.8125 9.75 11.9375 9.78125 12.0312 9.8125L15.5312 11.3125Z" fill="#33AB90"/>
</svg>
