<svg width="23" height="23" viewBox="0 0 23 23" fill="none" xmlns="http://www.w3.org/2000/svg">
<path d="M11.2376 22.4752C17.444 22.4752 22.4752 17.444 22.4752 11.2376C22.4752 5.03125 17.444 0 11.2376 0C5.03125 0 0 5.03125 0 11.2376C0 17.444 5.03125 22.4752 11.2376 22.4752Z" fill="#C72127"/>
<path d="M15.9374 8.09223C15.5403 7.67319 15.0951 7.67144 14.8918 7.64697C13.4304 7.54059 11.2396 7.54059 11.2396 7.54059H11.2351C11.2351 7.54059 9.04398 7.54059 7.58309 7.64697C7.37907 7.67144 6.93456 7.67319 6.53724 8.09223C6.22409 8.41113 6.12245 9.13558 6.12245 9.13558C6.12245 9.13558 6.01807 9.98639 6.01807 10.837V11.6346C6.01807 12.4854 6.12245 13.3357 6.12245 13.3357C6.12245 13.3357 6.22409 14.0602 6.53724 14.3793C6.93456 14.7981 7.45573 14.7851 7.68822 14.8286C8.52355 14.9092 11.2373 14.9344 11.2373 14.9344C11.2373 14.9344 13.4301 14.9309 14.8915 14.8246C15.0946 14.7998 15.5401 14.7981 15.9371 14.3791C16.25 14.0602 16.3524 13.3355 16.3524 13.3355C16.3524 13.3355 16.4563 12.4851 16.4563 11.6343V10.8367C16.4563 9.98614 16.3524 9.13533 16.3524 9.13533C16.3524 9.13533 16.2503 8.41113 15.9374 8.09223ZM10.16 12.601L10.1595 9.64727L12.9796 11.1294L10.16 12.601Z" fill="white"/>
</svg>
